<svg xmlns="http://www.w3.org/2000/svg" viewBox="0 0 381.64 296.85"><defs><style>.cls-1{opacity:0.4;}.cls-2{fill:#165a72;}.cls-3{fill:#0a2a33;}</style></defs><title>Asset 2</title><g id="Layer_2" data-name="Layer 2"><g id="Layer_1-2" data-name="Layer 1"><g class="cls-1"><path class="cls-2" d="M343.49,149.46q-8.78-8.62-17.57-17.28a59.35,59.35,0,0,1-12-16.69A58,58,0,0,1,308.17,90q0-24.57,0-49.14c0-2.31-.48-4.32-2.63-5.6a6.92,6.92,0,0,0-3.65-.79H255.72c-3.66,0-7.32.08-11-.07a10.29,10.29,0,0,1-9.95-10.06c-.11-3.37.06-6.75-.06-10.12A10.81,10.81,0,0,1,245.8,3c11.18.12,22.36,0,33.54,0,8.36,0,16.74-.2,25.09.13,14,.54,24.3,7.38,31.07,19.58a36.65,36.65,0,0,1,4.28,18.06c0,16.31.06,32.62,0,48.93a26.17,26.17,0,0,0,5.58,16.86,39.4,39.4,0,0,0,3.28,3.56Q362.45,124.1,376.3,138c3.52,3.5,5.51,7.54,5.33,12.58a16.21,16.21,0,0,1-5.2,11.16q-14.19,14.15-28.37,28.3a26.5,26.5,0,0,0-8,15.4,37,37,0,0,0-.22,5.05c0,16.17,0,32.34,0,48.51,0,9.56-2.89,18.13-9.3,25.33a35.76,35.76,0,0,1-27.56,12.46c-19.12.11-38.24,0-57.37,0-6.3,0-10.69-4.46-10.77-10.8,0-3.3,0-6.61,0-9.91a10.54,10.54,0,0,1,10.11-10.86c.77,0,1.55,0,2.32,0H301c.7,0,1.4,0,2.1,0a5,5,0,0,0,5-5.15c.08-2.32,0-4.64,0-7q0-21.4,0-42.81a58.58,58.58,0,0,1,17.66-42.65q8.07-8,16.13-16.08A4.89,4.89,0,0,0,343.49,149.46Z"/><path class="cls-2" d="M41.91,150c1.77,1.66,3.4,3.1,4.93,4.64,5.18,5.25,10.58,10.29,15.55,15.76a57.13,57.13,0,0,1,14.3,30A71.09,71.09,0,0,1,77.48,212q0,23.42,0,46.82a13.49,13.49,0,0,0,.08,2.11,5,5,0,0,0,4.59,4.23,23.49,23.49,0,0,0,2.52.06h54.63c4.67,0,8.35,1.67,10.51,6a10.75,10.75,0,0,1,1.08,4.89c0,3.31,0,6.61,0,9.91-.1,6.31-4.52,10.79-10.81,10.8-19.26,0-38.53.16-57.79,0C61.8,296.54,46,280.18,45.86,259.38c-.07-16.17-.13-32.35,0-48.51A28.31,28.31,0,0,0,37,189.39c-9.34-9.16-18.5-18.49-27.78-27.71A16.14,16.14,0,0,1,4,148.81,14.7,14.7,0,0,1,7.52,140c1-1.13,2-2.16,3.05-3.21q13.56-13.57,27.15-27.14a26.39,26.39,0,0,0,7.91-15.24,36.91,36.91,0,0,0,.21-5.26c0-16.1,0-32.2,0-48.3,0-10.34,3.33-19.49,10.69-26.89A36,36,0,0,1,83.12,3.05c18.84,0,37.68.09,56.52,0A10.85,10.85,0,0,1,150.9,14.46a77,77,0,0,0,0,8.86,10.74,10.74,0,0,1-11.08,11.19c-10.19-.09-20.38,0-30.58,0q-12.66,0-25.31,0c-4.49,0-6.44,2-6.44,6.42q0,24.26,0,48.51A59,59,0,0,1,68,122.18a63,63,0,0,1-8.47,10.2C53.79,138.16,48,143.91,41.91,150Z"/><path class="cls-3" d="M343.49,149.46q-8.78-8.62-17.57-17.28a59.35,59.35,0,0,1-12-16.69A58,58,0,0,1,308.17,90q0-24.57,0-49.14c0-2.31-.48-4.32-2.63-5.6a6.92,6.92,0,0,0-3.65-.79H255.72c-3.66,0-7.32.08-11-.07a10.29,10.29,0,0,1-9.95-10.06c-.11-3.37.06-6.75-.06-10.12A10.81,10.81,0,0,1,245.8,3c11.18.12,22.36,0,33.54,0,8.36,0,16.74-.2,25.09.13,14,.54,24.3,7.38,31.07,19.58a36.65,36.65,0,0,1,4.28,18.06c0,16.31.06,32.62,0,48.93a26.17,26.17,0,0,0,5.58,16.86,39.4,39.4,0,0,0,3.28,3.56Q362.45,124.1,376.3,138c3.52,3.5,5.51,7.54,5.33,12.58a16.21,16.21,0,0,1-5.2,11.16q-14.19,14.15-28.37,28.3a26.5,26.5,0,0,0-8,15.4,37,37,0,0,0-.22,5.05c0,16.17,0,32.34,0,48.51,0,9.56-2.89,18.13-9.3,25.33a35.76,35.76,0,0,1-27.56,12.46c-19.12.11-38.24,0-57.37,0-6.3,0-10.69-4.46-10.77-10.8,0-3.3,0-6.61,0-9.91a10.54,10.54,0,0,1,10.11-10.86c.77,0,1.55,0,2.32,0H301c.7,0,1.4,0,2.1,0a5,5,0,0,0,5-5.15c.08-2.32,0-4.64,0-7q0-21.4,0-42.81a58.58,58.58,0,0,1,17.66-42.65q8.07-8,16.13-16.08A4.89,4.89,0,0,0,343.49,149.46Z"/><path class="cls-3" d="M41.91,150c1.77,1.66,3.4,3.1,4.93,4.64,5.18,5.25,10.58,10.29,15.55,15.76a57.13,57.13,0,0,1,14.3,30A71.09,71.09,0,0,1,77.48,212q0,23.42,0,46.82a13.49,13.49,0,0,0,.08,2.11,5,5,0,0,0,4.59,4.23,23.49,23.49,0,0,0,2.52.06h54.63c4.67,0,8.35,1.67,10.51,6a10.75,10.75,0,0,1,1.08,4.89c0,3.31,0,6.61,0,9.91-.1,6.31-4.52,10.79-10.81,10.8-19.26,0-38.53.16-57.79,0C61.8,296.54,46,280.18,45.86,259.38c-.07-16.17-.13-32.35,0-48.51A28.31,28.31,0,0,0,37,189.39c-9.34-9.16-18.5-18.49-27.78-27.71A16.14,16.14,0,0,1,4,148.81,14.7,14.7,0,0,1,7.52,140c1-1.13,2-2.16,3.05-3.21q13.56-13.57,27.15-27.14a26.39,26.39,0,0,0,7.91-15.24,36.91,36.91,0,0,0,.21-5.26c0-16.1,0-32.2,0-48.3,0-10.34,3.33-19.49,10.69-26.89A36,36,0,0,1,83.12,3.05c18.84,0,37.68.09,56.52,0A10.85,10.85,0,0,1,150.9,14.46a77,77,0,0,0,0,8.86,10.74,10.74,0,0,1-11.08,11.19c-10.19-.09-20.38,0-30.58,0q-12.66,0-25.31,0c-4.49,0-6.44,2-6.44,6.42q0,24.26,0,48.51A59,59,0,0,1,68,122.18a63,63,0,0,1-8.47,10.2C53.79,138.16,48,143.91,41.91,150Z"/></g><path class="cls-2" d="M339.49,146.46q-8.78-8.62-17.57-17.28a59.35,59.35,0,0,1-12-16.69A58,58,0,0,1,304.17,87q0-24.57,0-49.14c0-2.31-.48-4.32-2.63-5.6a6.92,6.92,0,0,0-3.65-.79H251.72c-3.66,0-7.32.08-11-.07a10.29,10.29,0,0,1-9.95-10.06c-.11-3.37.06-6.75-.06-10.12A10.81,10.81,0,0,1,241.8,0c11.18.12,22.36,0,33.54,0,8.36,0,16.74-.2,25.09.13,14,.54,24.3,7.38,31.07,19.58a36.65,36.65,0,0,1,4.28,18.06c0,16.31.06,32.62,0,48.93a26.17,26.17,0,0,0,5.58,16.86,39.4,39.4,0,0,0,3.28,3.56Q358.45,121.1,372.3,135c3.52,3.5,5.51,7.54,5.33,12.58a16.21,16.21,0,0,1-5.2,11.16q-14.19,14.15-28.37,28.3a26.5,26.5,0,0,0-8,15.4,37,37,0,0,0-.22,5.05c0,16.17,0,32.34,0,48.51,0,9.56-2.89,18.13-9.3,25.33a35.76,35.76,0,0,1-27.56,12.46c-19.12.11-38.24,0-57.37,0-6.3,0-10.69-4.46-10.77-10.8,0-3.3,0-6.61,0-9.91a10.54,10.54,0,0,1,10.11-10.86c.77,0,1.55,0,2.32,0H297c.7,0,1.4,0,2.1,0a5,5,0,0,0,5-5.15c.08-2.32,0-4.64,0-7q0-21.4,0-42.81a58.58,58.58,0,0,1,17.66-42.65q8.07-8,16.13-16.08A4.89,4.89,0,0,0,339.49,146.46Z"/><path class="cls-2" d="M37.91,147c1.77,1.66,3.4,3.1,4.93,4.64,5.18,5.25,10.58,10.29,15.55,15.76a57.13,57.13,0,0,1,14.3,30A71.09,71.09,0,0,1,73.48,209q0,23.42,0,46.82a13.49,13.49,0,0,0,.08,2.11,5,5,0,0,0,4.59,4.23,23.49,23.49,0,0,0,2.52.06h54.63c4.67,0,8.35,1.67,10.51,6a10.75,10.75,0,0,1,1.08,4.89c0,3.31,0,6.61,0,9.91-.1,6.31-4.52,10.79-10.81,10.8-19.26,0-38.53.16-57.79,0C57.8,293.54,42,277.18,41.86,256.38c-.07-16.17-.13-32.35,0-48.51A28.31,28.31,0,0,0,33,186.39c-9.34-9.16-18.5-18.49-27.78-27.71A16.14,16.14,0,0,1,0,145.81,14.7,14.7,0,0,1,3.52,137c.95-1.13,2-2.16,3.05-3.21q13.56-13.57,27.15-27.14a26.39,26.39,0,0,0,7.91-15.24,36.91,36.91,0,0,0,.21-5.26c0-16.1,0-32.2,0-48.3,0-10.34,3.33-19.49,10.69-26.89A36,36,0,0,1,79.12.05C98,.07,116.8.14,135.64,0A10.85,10.85,0,0,1,146.9,11.46a77,77,0,0,0,0,8.86,10.74,10.74,0,0,1-11.08,11.19c-10.19-.09-20.38,0-30.58,0q-12.66,0-25.31,0c-4.49,0-6.44,2-6.44,6.42q0,24.26,0,48.51A59,59,0,0,1,64,119.18a63,63,0,0,1-8.47,10.2C49.79,135.16,44,140.91,37.91,147Z"/></g></g></svg>